<svg fill="none" height="24" viewBox="0 0 24 24" width="24" xmlns="http://www.w3.org/2000/svg"><g fill="#292d32"><path d="m12 22.75c-5.93 0-10.75-4.82-10.75-10.75s4.82-10.75 10.75-10.75 10.75 4.82 10.75 10.75-4.82 10.75-10.75 10.75zm0-20c-5.1 0-9.25 4.15-9.25 9.25s4.15 9.25 9.25 9.25 9.25-4.15 9.25-9.25-4.15-9.25-9.25-9.25z"/><path d="m9.16937 15.5801c-.19 0-.37999-.07-.52999-.22-.29-.29-.29-.77 0-1.06l5.66002-5.65999c.29-.29.77-.29 1.06 0s.29.77 0 1.06l-5.66003 5.65999c-.14.15-.34.22-.53.22z"/><path d="m14.8294 15.5801c-.19 0-.38-.07-.53-.22l-5.66002-5.65999c-.29-.29-.29-.77 0-1.06.28999-.29.76999-.29 1.05999 0l5.66003 5.65999c.29.29.29.77 0 1.06-.15.15-.34.22-.53.22z"/></g></svg>