<svg viewBox="0 0 22 22" xmlns="http://www.w3.org/2000/svg"><path d="m3 3v1 3h1v-3h3v-1h-3zm7 0v3h-3-1v7h-3v1h7v5h1v-5h8v-1h-3v-7h-1-4v-3zm5 0v1h3v3h1v-3-1h-1zm-8 4h3v6h-3zm4 0h4v6h-4zm-8 8v3 1h4v-1h-3v-3zm15 0v3h-3v1h4v-1-3z" fill="#232629"/><path d="m11 5c-.90442 0-1.6369417.6034836-2.2304688 1.3652344-.5935269.761752-1.0839052 1.7305246-1.4882812 2.6914066-.808752 1.921762-1.2675781 3.826172-1.2675781 3.826171l.9726562.234376s.4474039-1.845591 1.2167969-3.673829c.384697-.914118.8513466-1.8203454 1.3535156-2.4648434.5001404-.641897.9994884-.9719173 1.4375004-.9746094.4208.01378.782978.1849888 1.15625.5429688.375823.360428.739876.9081416 1.076171 1.587891.643616 1.300928 1.184369 3.072232 1.722657 4.865234h1.046875c-.0052-.0174-.01041-.03338-.01563-.05078-.562144-1.874727-1.123177-3.773706-1.857417-5.2578138-.36712-.742054-.777465-1.3840402-1.28125-1.8671874-.503785-.4831469-1.126428-.8049361-1.828125-.8242188h-.0059z" fill="#3daee9"/></svg>