<svg height="45.122002" width="45.122002" xmlns="http://www.w3.org/2000/svg" xmlns:xlink="http://www.w3.org/1999/xlink"><linearGradient id="a" gradientUnits="userSpaceOnUse" x1="127.19796" x2="127.19796" y1="18.49473" y2="47.546875"><stop offset="0" stop-color="#fff"/><stop offset="1" stop-color="#fff" stop-opacity="0"/></linearGradient><path d="m-17.358272 17.809135a14.934876 14.934876 0 0 1 -14.934876 14.934877 14.934876 14.934876 0 0 1 -14.934876-14.934877 14.934876 14.934876 0 0 1 14.934876-14.934876 14.934876 14.934876 0 0 1 14.934876 14.934876z" fill="#aaa" stroke="#000" stroke-width=".676981" transform="matrix(1.4771465 0 0 1.4771465 70.26271 -3.745702)"/><path d="m149.62659 34.778526a22.428625 16.283796 0 0 1 -22.42863 16.283797 22.428625 16.283796 0 0 1 -22.42863-16.283797 22.428625 16.283796 0 0 1 22.42863-16.283796 22.428625 16.283796 0 0 1 22.42863 16.283796z" fill="url(#a)" fill-rule="evenodd" opacity=".8" transform="matrix(.65366891 .42604174 -.41430019 .63565402 -41.94987 -60.557998)"/></svg>